# xmcd CD database file
#
# Track frame offsets:
#	150
#	11747
#	41840
#
# Disc length: 827 seconds
#
# Revision: 0
# Processed by: cddbd v1.4PL0 Copyright (c) Steve Scherf et al.
# Submitted via: CDex 1.50Beta7
#
DISCID=1f033903
DTITLE=G. Love and Special Sauce - Cold Beverage
DYEAR=1994
DGENRE=Blues
TTITLE0=Cold Beverage
TTITLE1=Just Like Trains
TTITLE2=Walk to slide
EXTD=YEAR: 1994
EXTT0=
EXTT1=
EXTT2=
PLAYORDER=
